<svg width="243" height="118" viewBox="0 0 243 118" fill="none" xmlns="http://www.w3.org/2000/svg">
<path id="Union" fill-rule="evenodd" clip-rule="evenodd" d="M241.904 3C241.904 4.18769 241.041 5 240.153 5C239.346 5 238.558 4.32814 238.422 3.31308L239.348 3.47922C239.503 3.78954 239.806 4 240.153 4C240.659 4 241.07 3.55228 241.07 3C241.07 2.44772 240.659 2 240.153 2C239.826 2 239.538 2.18698 239.376 2.46832L238.506 2.31213C238.761 1.50979 239.45 1 240.153 1C241.041 1 241.904 1.81231 241.904 3ZM237.517 2.13479C237.858 0.899726 238.909 0 240.153 0C241.673 0 242.904 1.34315 242.904 3C242.904 4.65685 241.673 6 240.153 6C238.673 6 237.466 4.72674 237.404 3.13037L237.065 3.06948C235.755 2.83446 233.924 2.5103 231.767 3.80954C229.581 5.12573 226.978 8.1612 224.338 14.9105C222.166 20.4634 219.993 28.4635 217.81 36.4981C217.336 38.2428 216.861 39.989 216.387 41.7122C215.058 46.5313 213.727 51.1653 212.393 55.0526C211.065 58.9243 209.717 62.1115 208.34 63.9984C207.646 64.9492 206.921 65.6052 206.151 65.9546C205.367 66.3107 204.572 66.3321 203.794 66.0731C202.291 65.5726 200.883 64.0361 199.55 62.0111C197.133 58.3372 194.724 52.6604 192.34 47.0421L192.34 47.0419C192.073 46.4131 191.806 45.7851 191.54 45.1607C188.884 38.9295 186.238 32.9994 183.599 28.4235C182.279 26.1358 180.971 24.2032 179.674 22.7461C178.373 21.283 177.118 20.339 175.915 19.9643C173.57 19.2339 171.112 20.6064 168.467 23.5395C165.85 26.4413 163.218 30.6896 160.559 35.2495C160.005 36.201 159.449 37.1662 158.892 38.133L158.891 38.1356L158.889 38.1382L158.889 38.1388C156.791 41.7819 154.68 45.4473 152.57 48.4883C151.233 50.4155 149.883 52.1124 148.519 53.4063C147.16 54.696 145.753 55.6194 144.299 55.9396C141.365 56.5851 138.533 54.7305 135.876 52.1749C134.126 50.4908 132.36 48.407 130.614 46.3466C129.696 45.2633 128.784 44.1865 127.882 43.1776C126.56 41.6986 125.254 40.3557 123.958 39.319C122.66 38.2798 121.405 37.5755 120.188 37.3308C118.993 37.0904 117.802 37.2857 116.583 38.1125C115.347 38.9514 114.066 40.4538 112.758 42.8605C110.758 46.539 108.757 52.1978 106.74 57.9048L106.74 57.9048L106.74 57.9053L106.74 57.9054C106.102 59.7106 105.462 61.5206 104.82 63.2743C103.491 66.9028 102.154 70.2863 100.808 72.8351C100.136 74.109 99.4517 75.1946 98.7524 76.0031C98.0606 76.8028 97.3059 77.3878 96.4819 77.5554C95.632 77.7283 94.8248 77.4366 94.0908 76.888C93.3621 76.3432 92.6612 75.5149 91.9837 74.5113C90.6273 72.5021 89.2835 69.6663 87.9556 66.6155C87.3647 65.258 86.78 63.8653 86.1967 62.4762L86.1967 62.4761L86.1964 62.4754C85.4561 60.7122 84.7182 58.9548 83.9732 57.2823C82.6452 54.3009 81.3369 51.6901 80.0469 49.982C78.7675 48.2879 77.5384 47.5253 76.3703 47.3077C75.195 47.0888 73.9847 47.4032 72.7074 48.0637C71.4271 48.7258 70.1336 49.7066 68.8026 50.7527C68.646 50.8758 68.4889 50.9998 68.3313 51.1242C67.1639 52.0454 65.9694 52.988 64.7731 53.73C62.6943 55.0194 60.5948 55.7087 58.5603 56.3768C57.9365 56.5816 57.3187 56.7845 56.7096 57.002C54.0986 57.9343 51.5249 59.1643 48.9432 62.0028C46.334 64.8714 43.7045 69.3918 41.0445 74.2875C40.4244 75.4288 39.8029 76.5899 39.1804 77.7529L39.1803 77.7531C37.1465 81.553 35.1019 85.373 33.0589 88.5872C27.6996 97.0188 22.3322 101.321 17.0055 105.418C11.6894 109.507 6.37413 113.42 3.71782 115.376L3.71687 115.377L1.06082 117.333L0.467896 116.527L3.12395 114.572C5.78006 112.616 11.0883 108.707 16.3958 104.625C21.6934 100.551 26.9501 96.3338 32.215 88.0508C34.2359 84.8713 36.2553 81.0986 38.2853 77.3059L38.2854 77.3058L38.2858 77.305C38.9113 76.1364 39.5379 74.9658 40.1658 73.8101C42.8179 68.929 45.5004 64.3017 48.2034 61.3299C50.9338 58.328 53.6721 57.0247 56.3733 56.0602C57.0305 55.8255 57.6786 55.6125 58.3203 55.4016L58.3204 55.4016L58.3204 55.4015L58.3205 55.4015L58.3205 55.4015C60.3309 54.7407 62.2784 54.1006 64.246 52.8802C65.3906 52.1702 66.537 51.2659 67.7106 50.34L67.7106 50.34L67.7107 50.3399C67.8682 50.2157 68.0262 50.0911 68.1847 49.9665C69.5097 48.9251 70.8723 47.8869 72.2481 47.1754C73.6268 46.4624 75.0726 46.0488 76.5534 46.3246C78.0413 46.6017 79.4682 47.5563 80.8449 49.3793C82.2109 51.1881 83.5587 53.894 84.8867 56.8755C85.6298 58.5437 86.38 60.33 87.1278 62.1105L87.1281 62.1113C87.7126 63.5029 88.2956 64.8911 88.8725 66.2164C90.2006 69.2676 91.5129 72.0267 92.8125 73.9518C93.4631 74.9154 94.0902 75.6391 94.6895 76.087C95.2835 76.531 95.8044 76.6727 96.2825 76.5755C96.7865 76.473 97.3599 76.0843 97.9961 75.3488C98.6248 74.622 99.2683 73.611 99.9241 72.3684C101.235 69.8844 102.553 66.5565 103.881 62.9305C104.509 61.2142 105.14 59.4301 105.772 57.6413L105.772 57.6403L105.772 57.6402C107.796 51.9134 109.838 46.1381 111.879 42.3828C113.227 39.9041 114.602 38.2489 116.022 37.2851C117.46 36.3091 118.924 36.0565 120.385 36.3504C121.824 36.6399 123.226 37.4519 124.583 38.5382C125.944 39.6271 127.294 41.0189 128.628 42.5111C129.57 43.5654 130.502 44.6655 131.428 45.759L131.429 45.7598C133.15 47.7925 134.853 49.8025 136.57 51.4543C139.225 54.0089 141.705 55.4865 144.084 54.9629C145.285 54.6985 146.534 53.912 147.831 52.6809C149.124 51.454 150.43 49.8192 151.748 47.9182C153.832 44.9152 155.915 41.2992 158.01 37.6608L158.011 37.6596L158.011 37.6594C158.571 36.686 159.133 35.7111 159.695 34.7459C162.349 30.1934 165.029 25.8589 167.724 22.8698C170.392 19.9118 173.245 18.0853 176.212 19.0096C177.666 19.4623 179.067 20.5591 180.421 22.0814C181.781 23.6095 183.128 25.6066 184.465 27.9239C187.138 32.5581 189.804 38.5395 192.46 44.7685C192.725 45.3907 192.99 46.0148 193.255 46.6382C195.651 52.283 198.022 57.8691 200.386 61.4615C201.71 63.4735 202.957 64.7405 204.11 65.1243C204.66 65.3074 205.194 65.2912 205.738 65.0441C206.296 64.7905 206.898 64.2779 207.532 63.4089C208.811 61.6564 210.119 58.5997 211.447 54.7281C212.77 50.8722 214.095 46.2637 215.422 41.4465C215.894 39.7361 216.366 37.9989 216.838 36.2599L216.838 36.2591L216.838 36.259C219.021 28.2241 221.213 20.1546 223.407 14.5462C226.079 7.71452 228.788 4.43614 231.251 2.95291C233.736 1.45613 235.885 1.84179 237.232 2.08356L237.241 2.08521L237.517 2.13479Z" fill="#FDAC15"/>
</svg>
